<?xml version="1.0" encoding="UTF-8"?>
<svg id="Layer_2" data-name="Layer 2" xmlns="http://www.w3.org/2000/svg" viewBox="0 0 800 800">
  <defs>
    <style>
      .cls-1 {
        fill: #777;
      }

      .cls-2 {
        fill: #282828;
      }
    </style>
  </defs>
  <g id="Layer_1-2" data-name="Layer 1">
    <rect class="cls-2" width="800" height="800"/>
    <path class="cls-1" d="m653.28,499.18V178c0-31.46-28.29-55.37-59.31-50.13l-279.64,47.23c-24.47,4.13-42.38,25.32-42.38,50.13v226.31c-8.13-2.09-16.64-3.2-25.42-3.2-56.16,0-101.69,45.53-101.69,101.69s45.53,101.69,101.69,101.69,101.69-45.53,101.69-101.69V246.72l228.8-38.64v192.62c-8.12-2.09-16.64-3.2-25.42-3.2-56.16,0-101.69,45.53-101.69,101.69s45.53,101.69,101.69,101.69,101.69-45.53,101.69-101.69Z"/>
  </g>
</svg>